inDegrees=no
num_controls=7
num_derivatives=13
num_iterations=108
num_multipliers=7
num_parameters=0
num_slacks=7
num_states=26
objective=0.545184
objective_accelerations=0.042125
objective_balance=0.003785
objective_effort=0.041091
objective_height=0.448712
objective_ligament=0.009470
solver_duration=1435.486382
status=Solve_Succeeded
success=true
DataType=double
version=3
OpenSimVersion=4.5
endheader
time	/jointset/ground_pelvis/pelvis_tilt/value	/jointset/ground_pelvis/pelvis_tx/value	/jointset/ground_pelvis/pelvis_ty/value	/jointset/hip_r/hip_flexion_r/value	/jointset/hip_r/hip_adduction_r/value	/jointset/hip_r/hip_rotation_r/value	/jointset/back/lumbar_extension/value	/jointset/patellofemoral_r/patellar_flexion_r/value	/jointset/knee_r/knee_flexion_r/value	/jointset/knee_r/knee_adduction_r/value	/jointset/knee_r/knee_rotation_r/value	/jointset/ankle_r/ankle_angle_r/value	/jointset/subtalar_r/subtalar_angle_r/value	/jointset/ground_pelvis/pelvis_tilt/speed	/jointset/ground_pelvis/pelvis_tx/speed	/jointset/ground_pelvis/pelvis_ty/speed	/jointset/hip_r/hip_flexion_r/speed	/jointset/hip_r/hip_adduction_r/speed	/jointset/hip_r/hip_rotation_r/speed	/jointset/back/lumbar_extension/speed	/jointset/patellofemoral_r/patellar_flexion_r/speed	/jointset/knee_r/knee_flexion_r/speed	/jointset/knee_r/knee_adduction_r/speed	/jointset/knee_r/knee_rotation_r/speed	/jointset/ankle_r/ankle_angle_r/speed	/jointset/subtalar_r/subtalar_angle_r/speed	/forceset/tau_hip_flexion_r	/forceset/tau_hip_adduction_r	/forceset/tau_hip_rotation_r	/forceset/tau_knee_flexion_r	/forceset/tau_ankle_angle_r	/forceset/tau_subtalar_angle_r	/forceset/tau_lumbar_extension	lambda_cid13_p0	lambda_cid14_p0	lambda_cid14_p1	lambda_cid14_p2	lambda_cid14_p3	lambda_cid14_p4	lambda_cid14_p5	/jointset/ground_pelvis/pelvis_tilt/accel	/jointset/ground_pelvis/pelvis_tx/accel	/jointset/ground_pelvis/pelvis_ty/accel	/jointset/hip_r/hip_flexion_r/accel	/jointset/hip_r/hip_adduction_r/accel	/jointset/hip_r/hip_rotation_r/accel	/jointset/back/lumbar_extension/accel	/jointset/patellofemoral_r/patellar_flexion_r/accel	/jointset/knee_r/knee_flexion_r/accel	/jointset/knee_r/knee_adduction_r/accel	/jointset/knee_r/knee_rotation_r/accel	/jointset/ankle_r/ankle_angle_r/accel	/jointset/subtalar_r/subtalar_angle_r/accel	gamma_cid13_p0	gamma_cid14_p0	gamma_cid14_p1	gamma_cid14_p2	gamma_cid14_p3	gamma_cid14_p4	gamma_cid14_p5
0	-0.006515384726880582	0.09626029892040018	0.9427240698329312	0.1762555222360518	-0.2321527378504036	-0.261640465298503	-0.038598046466844	0.07317863873451073	0.07317863873451017	0.1745328311865584	0.174532737133809	0.03247278518263602	-0.00345203039465944	0	0	0	0	0	0	0	0	0	0	0	0	0	0.2316315432675128	-0.1439739092070233	-0.04191437875396083	-0.3889858897731463	0.3510809702868151	-0.1488140358467383	-0.1309408158028227	-39.07568800613631	61.96479019345652	-43.80802671857043	-3.946625743279788	-8.166469998032373	-682.6716713664872	48.9806924546619	-3.040775453949646	-1.823423456163512	-0.6936174099740948	10.58817280035123	0.3231679040832762	2.179366364537727	-5.578502706693994	8.594884608709256	8.594884608709631	-2.980158641736371	0.1828201510562908	1.831549637488284	0.7457561370392323	8.713322029644781e-08	6.778216956934653e-08	-5.274904601877683e-07	1.894612184473928e-07	1.442875830084082e-08	1.051181278086419e-07	-2.595085502361944e-07
0.01	-0.006660078770640099	0.09617266366440191	0.9426906638736758	0.1767669560960496	-0.2321360173309255	-0.2615229685986273	-0.03887774739421149	0.07359655774864052	0.07359655774863993	0.1743849882368016	0.1745303016841439	0.03256457808437047	-0.003414203881131793	-0.02882580232390052	-0.01720755317655919	-0.006660687665801378	0.1015830760692702	0.003233040575741685	0.02343048565023411	-0.05539737272790669	0.08329599183325323	0.08329599183324367	-0.02924968318295019	-0.0004745044528860168	0.01859421826418007	0.007502726503172808	0.2322727523723524	-0.1591060598863887	-0.04294942418507989	-0.3979647306507918	0.3671189586742553	-0.1396928260763531	-0.1300333569005319	-39.0896156687114	67.58525402168169	-38.95395021606993	-4.616136284539758	-15.07017856561613	-682.9857735391878	59.05216724723158	-2.786526648928616	-1.621493659143199	-0.6491977934734732	9.837827166959331	0.3066570291615978	2.414606287340356	-5.438932644033401	8.153767395085586	8.153767395083793	-2.849601591114344	-0.1606448685811285	1.90872008527947	0.7430827061893981	1.198460257460907e-07	6.71733531119349e-08	-7.487453518908987e-07	1.645701540136092e-07	4.655317515884182e-08	-9.631565614876738e-08	-2.998992761548958e-07
0.02	-0.007089639643100957	0.09592253839448987	0.9425912703680446	0.1782731111480892	-0.2320903094267218	-0.2611732237178351	-0.03969513766649661	0.07483879886599384	0.07483879886599362	0.1739542027683079	0.1745235093649201	0.03284938560162604	-0.00330323974272581	-0.05697336574054286	-0.03249800278275633	-0.01319750927518877	0.1989442384083157	0.005797476945161587	0.04644963618343196	-0.1075378689835916	0.1648644206445963	0.1648644206445706	-0.05658850374749968	-0.0008713739105744563	0.03860292310422481	0.01462752497566895	0.2329139614771906	-0.1742382105657535	-0.04398446961619799	-0.4069435715284335	0.3831569470616977	-0.1305716163059666	-0.1291258979982451	-39.13076156532644	73.28194879808198	-34.10667895502894	-5.26153959744806	-22.07394582787883	-682.0800390332837	68.89453021000097	-2.905127672498029	-1.440002742091086	-0.6688441986913001	9.743790054306306	0.1894470628189072	2.097099341130442	-4.927127412249658	8.249372004327226	8.249372004326284	-2.597986118056204	0.1983471500958446	2.114446952661232	0.6701705309038883	1.525588311957336e-07	6.656453665452325e-08	-9.70000243594029e-07	1.396790895798256e-07	7.867759201684283e-08	-2.977494401061767e-07	-3.402900020735973e-07
0.03	-0.00779774678574487	0.09552642733208283	0.9424268134476694	0.1807352038081717	-0.232021812496763	-0.2605981010579658	-0.04101917554383487	0.07688776471887963	0.07688776471888024	0.1732590305006874	0.1745151976450439	0.03333767996185028	-0.003123201890868541	-0.08452814690092429	-0.04666884724241447	-0.01969506591387613	0.2930376663985049	0.007861054076679698	0.06844485244488681	-0.1569328918511669	0.2445367959775928	0.2445367959775315	-0.08222707330824293	-0.0008012181522234938	0.0589198846462776	0.02130786919914534	0.2261397338860661	-0.1856605825024617	-0.04213521358432171	-0.3991873372671273	0.3695418365991947	-0.1147727014869582	-0.1237601388178166	-39.19819699566357	69.58258345504605	-28.00132882754447	-6.111096833411414	-20.36477408111562	-681.2158657110862	80.06344781085194	-2.662648962885487	-1.397305064117091	-0.640450427326724	9.176635943255601	0.2085609384565791	2.231272829363494	-4.895167529107858	7.767346560588218	7.767346560583393	-2.514102753255617	-0.09012496400780182	1.969943556627097	0.6560017452973482	1.671052158737559e-07	6.884084728533454e-08	-1.046856518899074e-06	1.609143353229538e-07	9.141126260165584e-08	-3.989778403157173e-07	-3.805979969173267e-07
0.04	-0.008777800865006624	0.09499027187183648	0.9421973331547336	0.1841251341025325	-0.2319339302154614	-0.2598069182233385	-0.04282705921086757	0.07972168957765702	0.07972168957765546	0.1723140104618179	0.1745072925322009	0.03402506849782543	-0.002878553521330946	-0.111362753064403	-0.06050688235062209	-0.02620218378729781	0.3845117652639095	0.009674547213730796	0.08966167113476127	-0.2043070269226004	0.3218562218226839	0.3218562218225887	-0.106558057995874	-0.0007900525023731075	0.0784217582543226	0.02754962851173442	0.2193655062949364	-0.1970829544391738	-0.04028595755245633	-0.3914311030058227	0.3559267261366892	-0.0989737866679542	-0.1183943796373899	-39.29063503596083	65.95318465742518	-21.89533942657297	-6.947491237652514	-18.76537272233535	-679.2612703197713	91.03726785989775	-2.761092673117504	-1.373440871800971	-0.6707564456381693	9.219924229349356	0.139430263925493	1.941419826814343	-4.522949853021322	7.778782106746138	7.778782106745534	-2.336469143433744	0.1865491283957504	1.951429365859687	0.5824535487264138	1.812770351750438e-07	7.117664507260402e-08	-1.120735503144363e-06	1.831006390078739e-07	1.037451239849598e-07	-4.981401501387039e-07	-4.209042859656959e-07
0.05	-0.01002282061863576	0.09431744871896051	0.9419025226035614	0.1884174991498642	-0.2318291812235591	-0.258809236491076	-0.04509790617423833	0.08331841544998445	0.08331841544998357	0.1711322158600724	0.1745011210205996	0.03490394118447319	-0.002573540147108352	-0.1374889129034114	-0.07399399311197891	-0.03277388081541328	0.4734973871504767	0.01122577873691605	0.1097710030493206	-0.2495111515114191	0.3971264851090827	0.3971264851090484	-0.1295606804178529	-0.0004847098032562106	0.09724087981577605	0.03337752075761532	0.2112844438639513	-0.1799717455805014	-0.03843501506618515	-0.3829042020677919	0.347324340252759	-0.1086362490843139	-0.1120593383695531	-39.40649339120412	62.96004011538255	-26.63072266225276	-6.175525142730275	-17.06527366219936	-677.425476637503	79.94912987592674	-2.515511203754391	-1.326762062689744	-0.652569915983609	8.668316501970668	0.1554147862016922	2.030196580191848	-4.466461625811205	7.346741939592949	7.346741939602263	-2.246290672445669	-0.05346731728021718	1.830406114836579	0.5714718424774027	1.749808524003018e-07	6.368502348144049e-08	-1.067191833041421e-06	1.723156038536801e-07	1.061460466899827e-07	-5.644650253456219e-07	-4.02977827179605e-07
